<svg version="1.1" id="Layer_1" xmlns="http://www.w3.org/2000/svg" xmlns:xlink="http://www.w3.org/1999/xlink" x="0px" y="0px"
    width="100%" height="100%" viewBox="0 0 200 200" enable-background="new 0 0 200 200" xml:space="preserve">
    <path fill="#000" opacity="1.000000" stroke="none"
        d="
    M131.000000,201.000000 
    C87.333336,201.000000 44.166672,201.000000 1.000006,201.000000 
    C1.000004,134.333344 1.000004,67.666679 1.000002,1.000015 
    C67.666656,1.000010 134.333313,1.000010 200.999969,1.000005 
    C200.999985,67.666649 200.999985,134.333298 201.000000,200.999969 
    C177.833328,201.000000 154.666672,201.000000 131.000000,201.000000 
    M77.342888,153.413498 
    C77.708389,153.343781 78.073883,153.274048 78.763062,153.230316 
    C78.763062,153.230316 79.000816,153.009140 79.700760,152.917053 
    C89.661621,147.210159 99.565636,141.399994 109.620773,135.864334 
    C112.353333,134.359985 113.219543,132.579132 113.189728,129.561035 
    C113.046600,115.072571 113.231621,100.580078 112.982742,86.094460 
    C112.951019,84.248436 111.519859,81.664101 109.955307,80.727165 
    C97.247467,73.117081 84.371956,65.785194 71.482475,58.483395 
    C70.370590,57.853523 68.440994,57.423740 67.480919,57.958900 
    C56.102108,64.301582 44.835514,70.845604 32.981644,77.657288 
    C46.965565,85.689827 60.254463,93.260963 73.452698,100.986992 
    C75.013870,101.900887 76.078369,103.663223 77.207703,105.951393 
    C77.276337,121.625648 77.344971,137.299896 77.342888,153.413498 
    M137.727356,181.946365 
    C146.965469,176.665466 156.276108,171.504272 165.374496,165.992706 
    C167.001541,165.007095 168.747910,162.577438 168.758087,160.804871 
    C168.986771,121.034645 169.011047,81.262978 168.902496,41.492046 
    C168.898224,39.926918 167.589554,37.716625 166.232452,36.907345 
    C156.095154,30.862177 145.849304,24.989719 135.478607,19.355539 
    C133.960876,18.530994 131.218109,18.549307 129.694305,19.377495 
    C119.909256,24.695696 110.299942,30.337877 100.653061,35.908569 
    C99.742371,36.434460 98.971169,37.201897 97.604546,38.273151 
    C109.356812,44.763042 120.527473,50.931755 132.045975,57.589630 
    C132.683929,58.067051 133.321869,58.544472 133.861908,59.952477 
    C133.887680,80.291870 133.913452,100.631264 133.611633,121.711899 
    C133.611633,142.358505 133.611633,163.005112 133.611633,184.284637 
    C135.165512,183.280014 136.100739,182.675369 137.727356,181.946365 
    z"/>
    <path fill="#43A5FF" opacity="1.000000" stroke="none"
        d="
    M131.698135,57.100464 
    C120.527473,50.931755 109.356812,44.763042 97.604546,38.273151 
    C98.971169,37.201897 99.742371,36.434460 100.653061,35.908569 
    C110.299942,30.337877 119.909256,24.695696 129.694305,19.377495 
    C131.218109,18.549307 133.960876,18.530994 135.478607,19.355539 
    C145.849304,24.989719 156.095154,30.862177 166.232452,36.907345 
    C167.589554,37.716625 168.898224,39.926918 168.902496,41.492046 
    C169.011047,81.262978 168.986771,121.034645 168.758087,160.804871 
    C168.747910,162.577438 167.001541,165.007095 165.374496,165.992706 
    C156.276108,171.504272 146.965469,176.665466 137.151520,181.686401 
    C136.050949,179.623428 135.083282,177.823547 135.070511,176.016907 
    C134.952850,159.383774 135.031372,142.749329 134.953598,126.115723 
    C134.945557,124.399162 134.292801,122.685608 133.939209,120.970657 
    C133.913452,100.631264 133.887680,80.291870 134.156860,59.279602 
    C133.533936,58.104641 132.616028,57.602554 131.698135,57.100464 
    z"/>
    <path fill="#44A6FE" opacity="1.000000" stroke="none"
        d="
    M77.373108,105.032257 
    C76.078369,103.663223 75.013870,101.900887 73.452698,100.986992 
    C60.254463,93.260963 46.965565,85.689827 32.981644,77.657288 
    C44.835514,70.845604 56.102108,64.301582 67.480919,57.958900 
    C68.440994,57.423740 70.370590,57.853523 71.482475,58.483395 
    C84.371956,65.785194 97.247467,73.117081 109.955307,80.727165 
    C111.519859,81.664101 112.951019,84.248436 112.982742,86.094460 
    C113.231621,100.580078 113.046600,115.072571 113.189728,129.561035 
    C113.219543,132.579132 112.353333,134.359985 109.620773,135.864334 
    C99.565636,141.399994 89.661621,147.210159 79.349609,152.493698 
    C78.998978,137.942734 79.049904,123.814674 78.928604,109.688103 
    C78.915245,108.131821 77.915421,106.584000 77.373108,105.032257 
    z"/>
</svg>
